<?xml version="1.0" encoding="UTF-8"?>
<svg width="41px" height="56px" viewBox="0 0 41 56" version="1.1" xmlns="http://www.w3.org/2000/svg" xmlns:xlink="http://www.w3.org/1999/xlink">
    <title>noun_Arrow_2206772</title>
    <g id="themed" stroke="none" stroke-width="1" fill="none" fill-rule="evenodd">
        <g id="Contact-us" transform="translate(-999.000000, -548.000000)" fill="#4BAF33" fill-rule="nonzero">
            <g id="noun_Arrow_2206772" transform="translate(999.000000, 548.000000)">
                <path d="M7.655085,9.09399 C8.653185,7.87479 10.657285,7.61329 11.889885,8.67189 C13.085185,9.69839 13.309885,11.68759 12.311485,12.90649 L12.311485,12.90649 L2.342485,25.00029 L33.999915,25.00029 C35.656815,25.00029 37.000015,26.34342 37.000015,28.00032 C37.000015,29.65712 35.656815,31.00022 33.999915,31.00022 L33.999915,31.00022 L2.342485,31.00022 L12.311485,43.09402 C13.309885,44.31302 13.108985,46.33052 11.889885,47.32872 C10.670685,48.32692 8.813385,48.20312 7.655085,46.90652 L7.655085,46.90652 L-6.345315,29.90652 C-7.178915,28.66732 -7.256715,27.37552 -6.345315,26.09402 L-6.345315,26.09402 Z M45,25.03782 C46.6568542,25.03782 48,26.3809658 48,28.03782 C48,29.6946742 46.6568542,31.03782 45,31.03782 L43,31.03782 C41.3431458,31.03782 40,29.6946742 40,28.03782 C40,26.3809658 41.3431458,25.03782 43,25.03782 L45,25.03782 Z" id="Combined-Shape" transform="translate(20.499993, 28.000021) rotate(90.000000) translate(-20.499993, -28.000021) "></path>
            </g>
        </g>
    </g>
</svg>