<?xml version="1.0" encoding="UTF-8"?>
<svg width="50px" height="50px" viewBox="0 0 50 50" version="1.1" xmlns="http://www.w3.org/2000/svg" xmlns:xlink="http://www.w3.org/1999/xlink">
    <title>arrowDownGreen</title>
    <defs>
        <linearGradient x1="82.0712755%" y1="119.117446%" x2="9.94246829%" y2="0%" id="linearGradient-1">
            <stop stop-color="#025197" offset="0%"></stop>
            <stop stop-color="#4BAF33" offset="100%"></stop>
        </linearGradient>
    </defs>
    <g id="themed" stroke="none" stroke-width="1" fill="none" fill-rule="evenodd">
        <g id="service-page--1" transform="translate(-636.000000, -1838.000000)">
            <g id="Group-9" transform="translate(637.000000, 1839.000000)">
                <g id="arrowDownGreen" transform="translate(24.000000, 24.000000) rotate(90.000000) translate(-24.000000, -24.000000) ">
                    <g id="Group-2" transform="translate(24.000000, 24.000000) scale(-1, 1) rotate(90.000000) translate(-24.000000, -24.000000) translate(0.000000, 0.000000)">
                        <rect id="Rectangle" stroke="url(#linearGradient-1)" stroke-width="2" transform="translate(24.000000, 24.000000) rotate(90.000000) translate(-24.000000, -24.000000) " x="0" y="0" width="48" height="48" rx="24"></rect>
                        <g id="noun_Arrow_2206772" transform="translate(24.000000, 24.222488) rotate(180.000000) translate(-24.000000, -24.222488) translate(15.000000, 12.602870)" fill="#4BAF33" fill-rule="nonzero">
                            <path d="M3.69118916,3.10779218 C4.12099287,2.55888703 4.98400221,2.44115516 5.51478675,2.91775538 C6.0295091,3.37990363 6.12626984,4.27547624 5.69633694,4.82424632 L5.69633694,4.82424632 L1.40346729,10.2690865 L14.0358497,10.2690865 C14.7493471,10.2690865 15.3277585,10.8737871 15.3277585,11.6197524 C15.3277585,12.3656728 14.7493471,12.9703599 14.0358497,12.9703599 L14.0358497,12.9703599 L1.40346729,12.9703599 L5.69633694,18.4152 C6.12626984,18.9640151 6.0397579,19.8723289 5.51478675,20.321736 C4.98977254,20.7711431 4.1899785,20.7154061 3.69118916,20.1316541 L3.69118916,20.1316541 L-2.33768959,12.477957 C-2.696656,11.9200475 -2.73015839,11.3384566 -2.33768959,10.7615029 L-2.33768959,10.7615029 L3.69118916,3.10779218 Z M19.2689653,10.2859832 C20.01491,10.2859832 20.6196177,10.8906909 20.6196177,11.6366356 C20.6196177,12.3825803 20.01491,12.987288 19.2689653,12.987288 L17.9702701,12.987288 C17.2243254,12.987288 16.6196177,12.3825803 16.6196177,11.6366356 C16.6196177,10.8906909 17.2243254,10.2859832 17.9702701,10.2859832 L19.2689653,10.2859832 Z" id="Combined-Shape" transform="translate(9.000000, 11.619618) rotate(90.000000) translate(-9.000000, -11.619618) "></path>
                        </g>
                    </g>
                </g>
            </g>
        </g>
    </g>
</svg>