<?xml version="1.0" encoding="UTF-8"?>
<svg width="30px" height="30px" viewBox="0 0 30 30" version="1.1" xmlns="http://www.w3.org/2000/svg" xmlns:xlink="http://www.w3.org/1999/xlink">
    <title>Combined Shape</title>
    <defs>
        <linearGradient x1="82.0712755%" y1="119.117446%" x2="9.94246829%" y2="0%" id="linearGradient-1">
            <stop stop-color="#025197" offset="0%"></stop>
            <stop stop-color="#4BAF33" offset="100%"></stop>
        </linearGradient>
    </defs>
    <g id="themed" stroke="none" stroke-width="1" fill="none" fill-rule="evenodd">
        <g id="home" transform="translate(-890.000000, -2041.000000)" fill="url(#linearGradient-1)" fill-rule="nonzero">
            <g id="Group-3" transform="translate(0.000000, 1766.000000)">
                <g id="Group-15" transform="translate(780.000000, 81.000000)">
                    <path d="M119.844688,205.08752 L122.362871,207.605703 C121.280293,208.959043 120.605469,210.651582 120.605469,212.515625 C120.605469,216.87752 124.15373,220.484375 128.515625,220.484375 C130.379668,220.484375 132.072207,219.750957 133.425547,218.668379 L133.425547,218.668379 L135.94373,221.186562 C133.945508,222.899961 131.354258,224 128.515625,224 C122.205371,224 117.089844,218.825879 117.089844,212.515625 C117.089844,209.676992 118.131289,207.085742 119.844688,205.08752 L119.844688,205.08752 Z M134.37043,202.717109 C137.703242,204.712988 140,208.34832 140,212.515625 C140,215.354258 138.899961,217.945508 137.186563,219.94373 L137.186563,219.94373 L134.668379,217.425547 C135.750957,216.072207 136.484375,214.379668 136.484375,212.515625 C136.484375,210.563809 135.68873,208.798086 134.512813,207.417148 C134.607969,206.779531 134.667969,206.135059 134.667969,205.484375 C134.667969,204.534746 134.56209,203.610254 134.37043,202.717109 Z M126.394297,211.637129 L128.91248,214.155312 C127.515254,215.353437 125.816914,216.195312 123.95791,216.60998 C123.14627,215.707344 122.60832,214.570508 122.443379,213.308457 C123.925566,213.119727 125.279023,212.529219 126.394297,211.637129 L126.394297,211.637129 Z M112.813437,198.05627 L115.331621,200.574453 C114.249043,201.927793 113.515625,203.620332 113.515625,205.484375 C113.515625,207.436191 114.31127,209.201914 115.487187,210.582852 C115.392031,211.220469 115.332031,211.864941 115.332031,212.515625 C115.332031,213.465254 115.43791,214.389746 115.62957,215.282891 C112.296758,213.287012 110,209.65168 110,205.484375 C110,202.645742 111.100039,200.054492 112.813437,198.05627 L112.813437,198.05627 Z M121.484375,194 C127.794629,194 132.910156,199.174121 132.910156,205.484375 C132.910156,208.323008 131.868711,210.914258 130.155312,212.91248 L130.155312,212.91248 L127.637129,210.394297 C128.719707,209.040957 129.394531,207.348418 129.394531,205.484375 C129.394531,201.12248 125.84627,197.515625 121.484375,197.515625 C119.620332,197.515625 117.927793,198.249043 116.574453,199.331621 L116.574453,199.331621 L114.05627,196.813437 C116.054492,195.100039 118.645742,194 121.484375,194 Z M126.042148,201.390078 C126.853789,202.292656 127.391738,203.429492 127.556621,204.691543 C126.074434,204.880273 124.720977,205.470781 123.605703,206.362871 L123.605703,206.362871 L121.08752,203.844687 C122.484746,202.646621 124.183086,201.804687 126.042148,201.390078 Z" id="Combined-Shape"></path>
                </g>
            </g>
        </g>
    </g>
</svg>