<?xml version="1.0" encoding="UTF-8"?>
<svg width="36px" height="40px" viewBox="0 0 36 40" version="1.1" xmlns="http://www.w3.org/2000/svg" xmlns:xlink="http://www.w3.org/1999/xlink">
    <title>Shape</title>
    <g id="themed" stroke="none" stroke-width="1" fill="none" fill-rule="evenodd">
        <g id="service-page-3" transform="translate(-1047.000000, -871.000000)" fill="#303030" fill-rule="nonzero">
            <path d="M1051.61538,902.791667 L1058.91608,902.791667 L1065,911 L1071.08392,902.791667 L1078.38462,902.791667 C1080.94406,902.791667 1083,900.75 1083,898.208333 L1083,875.583333 C1083,873.041667 1080.94406,871 1078.38462,871 L1051.61538,871 C1049.05594,871 1047,873.083333 1047,875.583333 L1047,898.166667 C1047,900.75 1049.05594,902.791667 1051.61538,902.791667 Z M1065,876.833333 C1067.6014,876.833333 1069.6993,878.916667 1069.6993,881.5 C1069.6993,884.083333 1067.6014,886.166667 1065,886.166667 C1062.3986,886.166667 1060.3007,884.083333 1060.3007,881.5 C1060.3007,878.916667 1062.3986,876.833333 1065,876.833333 Z M1065,887.666667 C1070.16084,887.666667 1074.35664,891.833333 1074.35664,896.958333 L1055.64336,896.958333 C1055.64336,891.833333 1059.83916,887.666667 1065,887.666667 Z" id="Shape"></path>
        </g>
    </g>
</svg>