<?xml version="1.0" encoding="UTF-8"?>
<svg width="50px" height="50px" viewBox="0 0 50 50" version="1.1" xmlns="http://www.w3.org/2000/svg" xmlns:xlink="http://www.w3.org/1999/xlink">
    <title>target</title>
    <g id="themed" stroke="none" stroke-width="1" fill="none" fill-rule="evenodd">
        <g id="target" fill="#FFFFFF" fill-rule="nonzero">
            <path d="M25.8602549,1.72084046 C21.9977197,1.72084046 18.189943,2.6514427 14.7774062,4.42004655 L10.7872639,0.429711732 C10.4343642,0.0766167742 9.92589145,-0.072600314 9.43814871,0.0335921878 C8.95040598,0.13978469 8.55008145,0.486817092 8.37573396,0.954611686 L6.36081279,6.36094431 L0.954573772,8.37576614 C0.486778817,8.55011349 0.139746147,8.95043771 0.0335535627,9.43818007 C-0.072541238,9.92592243 0.0765781823,10.434297 0.429673413,10.7872942 L4.41991353,14.777629 C2.65130832,18.1900654 1.72070535,21.9978391 1.72070535,25.8603713 C1.72070535,39.171005 12.549611,50 25.8602549,50 C39.1708988,50 50,39.171005 50,25.8603713 C50,12.5497377 39.1708988,1.72084046 25.8602549,1.72084046 Z M25.8602549,33.8050568 C30.2410412,33.8050568 33.8050443,30.2411543 33.8050443,25.8603713 C33.8050443,21.4795884 30.2410412,17.9156859 25.8602549,17.9156859 C24.1987223,17.9156859 22.6554096,18.429243 21.3788496,19.3046956 L17.6907597,15.6166085 C19.9330268,13.82483 22.7735318,12.7516599 25.8602549,12.7516599 C33.088391,12.7516599 38.9689764,18.6322408 38.9689764,25.8603713 C38.9689764,33.0885018 33.088391,38.9690828 25.8602549,38.9690828 C18.6321188,38.9690828 12.7516311,33.0885018 12.7516311,25.8603713 C12.7516311,22.7736506 13.8247043,19.9331479 15.6164841,17.6908824 L19.304574,21.3789695 C18.4291208,22.6555286 17.9155633,24.19884 17.9155633,25.8603713 C17.9155633,30.2410565 21.4795663,33.8050568 25.8602549,33.8050568 L25.8602549,33.8050568 Z M26.8974416,24.8231855 L23.5102306,21.4359771 C24.2116297,21.0619566 25.0114965,20.8490826 25.8602549,20.8490826 C28.6235111,20.8490826 30.8715475,23.0971173 30.8715475,25.8602736 C30.8715475,28.6234298 28.6235111,30.8714645 25.8602549,30.8714645 C23.0970965,30.8714645 20.8490601,28.6234298 20.8490601,25.8602736 C20.8490601,25.011418 21.0619342,24.2117474 21.435955,23.5102511 L24.823166,26.8974594 C25.1095731,27.1838663 25.4849629,27.3270208 25.8602549,27.3270208 C26.2356447,27.3270208 26.6110345,27.1837685 26.8973438,26.8974594 C27.4702557,26.3247435 27.4702557,25.3959992 26.8974416,24.8231855 L26.8974416,24.8231855 Z M10.3272916,4.11828775 L15.2629977,9.05408785 L14.6284824,12.5542357 L9.20464237,7.13049771 L10.3272916,4.11828775 Z M4.11825228,10.3273223 L7.13046457,9.20477169 L12.5543046,14.6285097 L9.0540562,15.2631224 L4.11825228,10.3273223 Z M25.8602549,47.0665055 C14.1672389,47.0665055 4.65420214,37.5534761 4.65420214,25.8603713 C4.65420214,22.7822555 5.32714631,19.7443286 6.61192012,16.9695361 L7.52277087,17.8803862 C7.80027967,18.1579925 8.1743983,18.3100453 8.55985977,18.3100453 C8.64678906,18.3100453 8.73430505,18.3023205 8.82152769,18.2865774 L12.0537522,17.7006607 C10.6345265,20.0929255 9.81823211,22.8828744 9.81823211,25.8603713 C9.81823211,34.7060307 17.0146864,41.9025773 25.8603527,41.9025773 C34.7060189,41.9025773 41.902571,34.7060307 41.902571,25.8603713 C41.902571,17.0147119 34.7060189,9.81816539 25.8603527,9.81816539 C22.8828534,9.81816539 20.0929024,10.6345569 17.7006358,12.0537816 L18.2865529,8.82155952 C18.3723088,8.34828907 18.2205492,7.86289351 17.8804591,7.52280371 L16.9696084,6.61195366 C19.7443052,5.32718084 22.7822345,4.6542372 25.8604505,4.6542372 C37.5535642,4.6542372 47.066601,14.1672666 47.066601,25.8602736 C47.066601,37.5534761 37.5533687,47.0665055 25.8602549,47.0665055 Z" id="Shape"></path>
        </g>
    </g>
</svg>