<?xml version="1.0" encoding="UTF-8"?>
<svg width="47px" height="30px" viewBox="0 0 47 30" version="1.1" xmlns="http://www.w3.org/2000/svg" xmlns:xlink="http://www.w3.org/1999/xlink">
    <title>Shape</title>
    <defs>
        <linearGradient x1="82.0712755%" y1="78.1601182%" x2="9.94246829%" y2="29.6287913%" id="linearGradient-1">
            <stop stop-color="#025197" offset="0%"></stop>
            <stop stop-color="#4BAF33" offset="100%"></stop>
        </linearGradient>
    </defs>
    <g id="themed" stroke="none" stroke-width="1" fill="none" fill-rule="evenodd">
        <g id="home" transform="translate(-882.000000, -1867.000000)" fill="url(#linearGradient-1)">
            <g id="Group-3" transform="translate(0.000000, 1766.000000)">
                <g id="Group-15" transform="translate(780.000000, 81.000000)">
                    <path d="M116.085174,25.8726363 L109.709779,35.0580419 C109.413249,35.5097831 109.264984,36.1121048 109.561514,36.4132656 L112.082019,39.1237132 C111.340694,41.3824194 112.675079,42.5870628 114.157729,42.4364824 C113.712934,44.6951886 114.750789,45.1469299 115.936909,45.4480907 C115.343849,47.5562166 117.271293,49.2126012 119.495268,48.1585383 C120.533123,50.567825 124.832808,50.2666641 125.574132,49.2126012 C125.574132,49.2126012 125.722397,49.2126012 125.722397,49.2126012 L124.239748,47.706797 C124.091483,47.5562166 124.239748,47.2550558 124.536278,47.4056362 L126.760252,49.6643425 C128.687697,50.4172446 130.170347,49.3631816 130.763407,48.3091187 L126.018927,43.4905453 C125.870662,43.3399649 126.018927,43.038804 126.315457,43.1893845 L131.801262,48.76086 C133.432177,49.513762 135.063091,48.1585383 135.804416,46.3515733 L131.059937,41.5329999 C130.911672,41.3824194 131.059937,41.0812586 131.356467,41.231839 L136.249211,46.2009928 C138.621451,46.5021537 140.252366,43.9422866 138.769716,41.8341607 L137.435331,40.4789369 L140.845426,37.4673286 C141.438486,37.0155873 141.438486,36.7144265 141.141956,36.1121048 L136.990536,27.5290209 C136.545741,26.9266993 136.397476,26.474958 135.656151,26.3243776 L130.911672,24.667993 C130.170347,24.3668321 129.280757,24.2162517 128.539432,24.5174126 C126.908517,24.9691538 124.536278,25.5714755 123.053628,26.3243776 C120.236593,25.4208951 118.902208,25.7220559 116.085174,25.8726363 Z M137.731861,23.1621888 L142.031546,20.9034825 L149,34.9074614 L144.996845,36.8650069 C143.958991,37.4673286 142.772871,37.0155873 142.179811,35.9615244 L136.990536,25.5714755 C136.545741,24.667993 136.842271,23.61393 137.731861,23.1621888 Z M114.750789,22.861028 L110.895899,20 L102,32.7993356 L105.706625,35.5097831 C106.596215,36.1121048 107.930599,35.810944 108.671924,34.9074614 L115.195584,25.4208951 C115.788644,24.5174126 115.640379,23.4633496 114.750789,22.861028 Z M106.596215,31.5946922 C106.15142,31.4441118 105.55836,31.4441118 105.410095,31.8958531 C105.113565,32.3475943 105.26183,32.949916 105.55836,33.1004964 C106.003155,33.4016573 106.596215,33.2510768 106.892744,32.7993356 C107.041009,32.4981747 106.892744,31.8958531 106.596215,31.5946922 Z M144.700315,32.949916 C145.14511,32.7993356 145.589905,32.949916 145.886435,33.4016573 C146.0347,33.8533985 145.886435,34.4557202 145.44164,34.6063006 C144.996845,34.756881 144.403785,34.6063006 144.255521,34.1545593 C144.107256,33.7028181 144.255521,33.2510768 144.700315,32.949916 Z M114.602524,38.9731327 C115.195584,39.1237132 115.936909,39.7260348 115.343849,40.3283565 L114.750789,40.9306782 C114.009464,41.3824194 112.971609,41.0812586 113.416404,39.5754544 C113.564669,39.1237132 113.861199,38.6719719 114.602524,38.9731327 Z M118.160883,42.285902 L116.381703,44.092867 C115.195584,44.092867 115.343849,42.8882236 115.640379,42.1353215 L116.678233,40.9306782 C117.419558,40.1777761 119.050473,41.3824194 118.160883,42.285902 Z M120.829653,44.9963495 L119.198738,46.6527341 C117.419558,47.5562166 116.974763,46.2009928 117.419558,44.9963495 L119.198738,43.3399649 C120.088328,42.285902 121.867508,43.9422866 120.829653,44.9963495 Z M122.905363,47.706797 L122.164038,48.4596991 C121.570978,48.6102795 120.681388,48.0079579 120.681388,47.2550558 L121.274448,46.5021537 C121.719243,46.3515733 122.757098,46.2009928 122.905363,47.706797 Z M136.694006,39.7260348 L127.946372,30.9923706 C127.798107,29.6371468 126.908517,29.6371468 125.425868,29.7877272 C125.425868,33.2510768 124.239748,35.3592027 121.422713,36.4132656 C120.533123,36.7144265 119.495268,35.810944 120.088328,34.756881 C123.201893,30.088888 121.422713,29.7877272 122.905363,27.5290209 C124.832808,26.9266993 126.760252,26.1737972 128.835962,25.5714755 C129.725552,25.4208951 130.170347,25.5714755 130.466877,25.7220559 L135.063091,27.3784405 C135.507886,27.6796013 135.804416,27.8301818 135.952681,28.281923 L139.659306,35.9615244 C139.807571,36.4132656 139.807571,36.8650069 139.362776,37.3167481 C138.473186,38.0696502 137.583596,38.9731327 136.694006,39.7260348 Z" id="Shape"></path>
                </g>
            </g>
        </g>
    </g>
</svg>