<?xml version="1.0" encoding="UTF-8"?>
<svg width="60px" height="40px" viewBox="0 0 60 40" version="1.1" xmlns="http://www.w3.org/2000/svg" xmlns:xlink="http://www.w3.org/1999/xlink">
    <title>Shape</title>
    <g id="themed" stroke="none" stroke-width="1" fill="none" fill-rule="evenodd">
        <g id="service-page-3" transform="translate(-690.000000, -871.000000)" fill="#303030" fill-rule="nonzero">
            <path d="M749.938335,876.388851 C749.938335,873.415692 747.533402,871 744.573484,871 L715.652621,871 C712.692703,871 710.28777,873.415692 710.28777,876.388851 L710.28777,898.315898 C710.28777,901.289057 712.692703,903.704749 715.652621,903.704749 L721.079137,903.704749 L721.079137,909.89883 C721.079137,910.889883 722.250771,911.385409 722.929085,910.64212 L729.83556,903.76669 C729.83556,903.76669 729.83556,903.704749 729.897225,903.704749 L744.635149,903.704749 C747.595067,903.704749 750,901.289057 750,898.315898 L750,876.388851 L749.938335,876.388851 Z M728.663926,878.494838 L731.500514,878.494838 C731.808839,878.494838 732.117163,878.742602 732.117163,879.114246 L731.808839,890.759119 C731.808839,891.068823 731.562179,891.254646 731.315519,891.254646 L728.972251,891.254646 C728.663926,891.254646 728.478931,891.006882 728.478931,890.759119 L728.170606,879.114246 C728.108941,878.742602 728.355601,878.494838 728.663926,878.494838 Z M732.117163,895.342739 C732.117163,895.838266 731.747174,896.209911 731.253854,896.209911 L728.972251,896.209911 C728.478931,896.209911 728.108941,895.838266 728.108941,895.342739 L728.108941,893.85616 C728.108941,893.360633 728.478931,892.988988 728.972251,892.988988 L731.253854,892.988988 C731.747174,892.988988 732.117163,893.360633 732.117163,893.85616 L732.117163,895.342739 Z M690,877.503785 C690,876.141087 691.109969,875.026153 692.466598,875.026153 L703.31963,875.026153 C704.676259,875.026153 705.786228,876.141087 705.786228,877.503785 L705.786228,877.503785 C705.786228,878.866483 704.676259,879.981418 703.31963,879.981418 L692.466598,879.981418 C691.109969,879.981418 690,878.866483 690,877.503785 Z M705.724563,887.352374 C705.724563,888.715072 704.614594,889.830007 703.257965,889.830007 L695.241521,889.830007 C693.884892,889.830007 692.774923,888.715072 692.774923,887.352374 C692.774923,885.989677 693.884892,884.874742 695.241521,884.874742 L703.257965,884.874742 C704.676259,884.874742 705.724563,885.989677 705.724563,887.352374 L705.724563,887.352374 Z M705.724563,897.200964 L705.724563,897.200964 C705.724563,898.563661 704.614594,899.678596 703.257965,899.678596 L698.386434,899.678596 C697.029805,899.678596 695.919836,898.563661 695.919836,897.200964 L695.919836,897.200964 C695.919836,895.838266 697.029805,894.723331 698.386434,894.723331 L703.31963,894.723331 C704.676259,894.723331 705.724563,895.838266 705.724563,897.200964 Z" id="Shape"></path>
        </g>
    </g>
</svg>