<?xml version="1.0" standalone="no"?>
<!DOCTYPE svg PUBLIC "-//W3C//DTD SVG 20010904//EN"
 "http://www.w3.org/TR/2001/REC-SVG-20010904/DTD/svg10.dtd">
<svg version="1.0" xmlns="http://www.w3.org/2000/svg"
 width="260.000000pt" height="260.000000pt" viewBox="0 0 260.000000 260.000000"
 preserveAspectRatio="xMidYMid meet">
<metadata>
Created by potrace 1.11, written by Peter Selinger 2001-2013
</metadata>
<g transform="translate(0.000000,260.000000) scale(0.100000,-0.100000)"
fill="#000000" stroke="none">
<path d="M1631 2450 c-13 -3 -33 -18 -45 -33 -19 -26 -20 -40 -20 -405 0 -207
4 -389 7 -404 4 -15 19 -36 34 -45 24 -16 64 -18 437 -18 232 -1 425 3 443 9
61 18 63 31 63 444 0 386 -4 422 -44 444 -22 13 -827 20 -875 8z"/>
<path d="M1423 2264 l-63 -64 0 -375 c0 -347 4 -400 25 -365 4 6 31 28 60 50
l54 40 1 390 c0 214 -3 390 -7 389 -5 0 -36 -29 -70 -65z"/>
<path d="M343 2216 l-28 -24 0 -426 c-1 -234 2 -426 6 -426 3 0 27 18 51 40
25 22 58 44 72 50 17 6 181 10 431 10 309 0 406 3 411 12 13 20 6 725 -6 749
-6 11 -22 24 -36 29 -15 6 -205 10 -449 10 l-424 0 -28 -24z"/>
<path d="M159 2042 c-35 -37 -73 -78 -84 -91 -19 -22 -20 -39 -20 -426 0 -273
3 -401 10 -397 5 3 38 33 73 66 35 34 67 63 73 64 33 12 36 54 34 447 -1 215
-3 393 -4 398 -3 17 -21 3 -82 -61z"/>
<path d="M1514 1460 c-48 -19 -73 -100 -36 -118 9 -5 212 -8 450 -8 l434 1 20
25 c11 14 33 41 49 60 16 19 29 38 29 43 0 10 -920 8 -946 -3z"/>
<path d="M526 1369 c-56 -5 -73 -10 -88 -29 -22 -27 -20 16 -20 -444 l-1 -379
32 -29 31 -28 421 0 c453 0 469 2 488 53 5 12 8 199 7 415 l-1 394 -28 24
c-21 18 -40 24 -75 24 -578 4 -708 4 -766 -1z"/>
<path d="M1489 1268 c-23 -9 -21 28 -23 -393 -1 -338 -2 -352 -23 -398 -12
-26 -31 -60 -43 -74 -11 -14 -20 -29 -20 -33 0 -3 204 -6 453 -5 473 1 484 2
507 45 7 13 11 155 11 409 0 433 0 434 -64 446 -47 9 -775 11 -798 3z"/>
<path d="M316 1238 c-12 -13 -75 -70 -139 -127 -64 -56 -118 -108 -118 -115
-4 -31 -5 -762 -1 -769 3 -7 56 38 222 191 l65 60 2 391 c2 215 1 391 -2 391
-3 0 -16 -10 -29 -22z"/>
<path d="M335 370 c-17 -14 -56 -48 -86 -76 -30 -29 -75 -71 -102 -94 -26 -24
-47 -46 -47 -49 0 -4 221 -7 492 -6 l491 0 108 120 c59 66 105 122 102 125 -2
3 -212 5 -466 5 l-461 0 -31 -25z"/>
<path d="M1368 292 c-44 -3 -51 -7 -105 -69 -32 -36 -59 -69 -61 -74 -2 -5
174 -9 421 -9 l425 0 34 28 c18 15 55 48 82 75 l49 47 -154 0 c-85 1 -264 2
-399 3 -135 1 -266 1 -292 -1z"/>
</g>
</svg>
