<?xml version="1.0" encoding="UTF-8"?>
<svg width="50px" height="50px" viewBox="0 0 50 50" version="1.1" xmlns="http://www.w3.org/2000/svg" xmlns:xlink="http://www.w3.org/1999/xlink">
    <title>Group 2</title>
    <defs>
        <linearGradient x1="82.0712755%" y1="119.117446%" x2="9.94246829%" y2="0%" id="linearGradient-1">
            <stop stop-color="#025197" offset="0%"></stop>
            <stop stop-color="#4BAF33" offset="100%"></stop>
        </linearGradient>
    </defs>
    <g id="themed" stroke="none" stroke-width="1" fill="none" fill-rule="evenodd">
        <g id="About-Us" transform="translate(-695.000000, -794.000000)">
            <g id="Group-2" transform="translate(695.000000, 794.000000)">
                <rect id="Rectangle" stroke="url(#linearGradient-1)" stroke-width="2" transform="translate(25.000000, 25.000000) rotate(90.000000) translate(-25.000000, -25.000000) " x="1" y="1" width="48" height="48" rx="24"></rect>
                <g id="noun_Arrow_2206772" transform="translate(25.000000, 25.000000) rotate(180.000000) translate(-25.000000, -25.000000) translate(16.000000, 13.000000)" fill="#FFFFFF" fill-rule="nonzero">
                    <path d="M3.69118916,3.26568692 C4.12099287,2.71678177 4.98400221,2.5990499 5.51478675,3.07565012 C6.0295091,3.53779837 6.12626984,4.43337098 5.69633694,4.98214106 L5.69633694,4.98214106 L1.40346729,10.4269812 L14.0358497,10.4269812 C14.7493471,10.4269812 15.3277585,11.0316818 15.3277585,11.7776471 C15.3277585,12.5235675 14.7493471,13.1282546 14.0358497,13.1282546 L14.0358497,13.1282546 L1.40346729,13.1282546 L5.69633694,18.5730947 C6.12626984,19.1219098 6.0397579,20.0302236 5.51478675,20.4796307 C4.98977254,20.9290378 4.1899785,20.8733008 3.69118916,20.2895488 L3.69118916,20.2895488 L-2.33768959,12.6358517 C-2.696656,12.0779422 -2.73015839,11.4963513 -2.33768959,10.9193976 L-2.33768959,10.9193976 Z M19.2689653,10.4438779 C20.01491,10.4438779 20.6196177,11.0485856 20.6196177,11.7945303 C20.6196177,12.540475 20.01491,13.1451827 19.2689653,13.1451827 L17.9702701,13.1451827 C17.2243254,13.1451827 16.6196177,12.540475 16.6196177,11.7945303 C16.6196177,11.0485856 17.2243254,10.4438779 17.9702701,10.4438779 L19.2689653,10.4438779 Z" id="Combined-Shape" transform="translate(9.000000, 11.777512) rotate(90.000000) translate(-9.000000, -11.777512) "></path>
                </g>
            </g>
        </g>
    </g>
</svg>