<?xml version="1.0" encoding="UTF-8"?>
<svg width="40px" height="40px" viewBox="0 0 40 40" version="1.1" xmlns="http://www.w3.org/2000/svg" xmlns:xlink="http://www.w3.org/1999/xlink">
    <title>Shape</title>
    <g id="themed" stroke="none" stroke-width="1" fill="none" fill-rule="evenodd">
        <g id="service-page-3" transform="translate(-355.000000, -871.000000)" fill="#303030" fill-rule="nonzero">
            <path d="M372.423755,871 C382.05659,871 389.847509,878.810893 389.847509,888.440534 C389.847509,891.2435 389.191235,893.893169 388.011925,896.245816 L387.769129,896.712342 L393.543872,902.492671 C395.485376,904.436032 395.485376,907.587823 393.543872,909.531197 C391.653046,911.423699 388.66917,911.485811 386.705997,909.726647 L386.499659,909.531197 L380.74982,903.775746 C378.260713,905.121171 375.435625,905.881068 372.423755,905.881068 C362.803378,905.881068 355,898.07025 355,888.440534 C355,878.810893 362.803378,871 372.423755,871 Z M372.423767,874.737257 C364.871441,874.737257 358.733674,880.880934 358.733674,888.440534 C358.733674,896.000283 364.871441,902.14381 372.423767,902.14381 C377.526413,902.14381 382.280398,899.276026 384.642175,894.629905 C385.589119,892.768577 386.11386,890.667366 386.11386,888.440534 C386.11386,880.880934 379.976168,874.737257 372.423767,874.737257 Z M377.34151,889.708324 C379.660537,889.708324 381.608426,891.289856 382.152383,893.430532 C382.172818,893.511132 382.161729,893.599631 382.123211,893.67323 C380.211912,897.325801 376.386091,899.686813 372.189032,899.686813 C368.075868,899.686813 364.462231,897.454586 362.51784,894.124802 C362.478188,894.056822 362.462084,893.974178 362.474467,893.896468 C362.836827,891.611249 364.75685,889.838905 367.120663,889.715224 L367.385079,889.708324 L377.34151,889.708324 Z M372.366418,877.325557 C375.115811,877.325557 377.344634,879.556526 377.344634,882.308567 C377.344634,885.060607 375.115811,887.291576 372.366418,887.291576 C369.617026,887.291576 367.388203,885.060607 367.388203,882.308567 C367.388203,879.556526 369.617026,877.325557 372.366418,877.325557 Z" id="Shape"></path>
        </g>
    </g>
</svg>