<?xml version="1.0" encoding="UTF-8"?>
<svg width="31px" height="30px" viewBox="0 0 31 30" version="1.1" xmlns="http://www.w3.org/2000/svg" xmlns:xlink="http://www.w3.org/1999/xlink">
    <title>Combined Shape</title>
    <defs>
        <linearGradient x1="82.0712755%" y1="116.4021%" x2="9.94246829%" y2="1.96429858%" id="linearGradient-1">
            <stop stop-color="#025197" offset="0%"></stop>
            <stop stop-color="#4BAF33" offset="100%"></stop>
        </linearGradient>
    </defs>
    <g id="themed" stroke="none" stroke-width="1" fill="none" fill-rule="evenodd">
        <g id="home" transform="translate(-1150.000000, -1867.000000)" fill="url(#linearGradient-1)" fill-rule="nonzero">
            <g id="Group-3" transform="translate(0.000000, 1766.000000)">
                <g id="Group-15" transform="translate(780.000000, 81.000000)">
                    <path d="M380.333448,30.3448276 C380.600345,30.3448276 380.862586,30.3639655 381.12431,30.3846552 L381.586207,32.5239655 C382.102414,32.6082759 382.601034,32.7422414 383.077931,32.9227586 L384.545345,31.3032759 C385.023276,31.5303448 385.482586,31.7889655 385.913966,32.0874138 L385.243621,34.1667241 C385.644483,34.4946552 386.011207,34.8618966 386.339138,35.2627586 L388.418448,34.5924138 C388.716897,35.0237931 388.975,35.4831034 389.202586,35.9610345 L387.583103,37.4284483 C387.763621,37.9053448 387.897586,38.4034483 387.981897,38.9201724 L390.121207,39.382069 C390.141897,39.6432759 390.161034,39.9055172 390.161034,40.1724138 C390.161034,40.4393103 390.141897,40.7015517 390.121207,40.9632759 L387.981897,41.4251724 C387.897586,41.9413793 387.763621,42.44 387.583103,42.9168966 L389.202586,44.3843103 C388.975517,44.8622414 388.716897,45.3215517 388.418448,45.752931 L386.339138,45.0825862 C386.011207,45.4834483 385.643966,45.8501724 385.243103,46.1781034 L385.913448,48.2574138 C385.482069,48.5558621 385.022759,48.8139655 384.544828,49.0415517 L383.077414,47.422069 C382.600517,47.6025862 382.102414,47.7365517 381.58569,47.8208621 L381.123793,49.9601724 C380.862586,49.9808621 380.600345,50 380.333448,50 C380.066552,50 379.80431,49.9808621 379.542586,49.9601724 L379.08069,47.8208621 C378.564483,47.7365517 378.065862,47.6025862 377.588966,47.422069 L376.121552,49.0415517 C375.643621,48.8144828 375.18431,48.5558621 374.752931,48.2574138 L375.423276,46.1781034 C375.022414,45.8501724 374.65569,45.482931 374.327759,45.0825862 L372.248448,45.752931 C371.95,45.3215517 371.691897,44.8622414 371.46431,44.3843103 L373.083793,42.9168966 C372.903276,42.44 372.76931,41.9418966 372.685,41.4251724 L370.54569,40.9632759 C370.525,40.7015517 370.505862,40.4393103 370.505862,40.1724138 C370.505862,39.9055172 370.525,39.6432759 370.54569,39.3815517 L372.685,38.9196552 C372.76931,38.4034483 372.903276,37.9048276 373.083793,37.427931 L371.46431,35.9605172 C371.691379,35.4825862 371.95,35.0232759 372.248448,34.5918966 L374.327759,35.2622414 C374.65569,34.8613793 375.022931,34.4946552 375.423793,34.1667241 L374.753448,32.0874138 C375.184828,31.7889655 375.644138,31.5308621 376.122069,31.3032759 L377.589483,32.9227586 C378.066379,32.7422414 378.564483,32.6082759 379.081207,32.5239655 L379.543103,30.3846552 C379.80431,30.3639655 380.066552,30.3448276 380.333448,30.3448276 Z M380.255862,36.3448276 C378.184737,36.3448276 376.505862,38.0237026 376.505862,40.0948276 C376.505862,42.1659526 378.184737,43.8448276 380.255862,43.8448276 C382.326987,43.8448276 384.005862,42.1659526 384.005862,40.0948276 C384.005862,38.0237026 382.326987,36.3448276 380.255862,36.3448276 Z M395.85069,32.9310345 C396.042586,32.9310345 396.230345,32.9460345 396.416034,32.9687931 L396.818448,34.1005172 C397.105517,34.1801724 397.377586,34.2924138 397.631552,34.4362069 L398.714655,33.9215517 C399.013103,34.1553448 399.281552,34.4237931 399.515345,34.7222414 L399.00069,35.8053448 C399.144483,36.0587931 399.256724,36.3313793 399.336379,36.6184483 L400.468103,37.0208621 C400.490862,37.2065517 400.505862,37.3943103 400.505862,37.5862069 C400.505862,37.7781034 400.490862,37.9658621 400.468103,38.1515517 L399.336379,38.5539655 C399.256724,38.8410345 399.144483,39.1131034 399.00069,39.367069 L399.515345,40.4501724 C399.281552,40.7486207 399.013103,41.017069 398.714655,41.2508621 L397.631552,40.7362069 C397.378103,40.88 397.105517,40.9922414 396.818448,41.0718966 L396.416034,42.2036207 C396.230345,42.2263793 396.042586,42.2413793 395.85069,42.2413793 C395.658793,42.2413793 395.471034,42.2263793 395.285345,42.2036207 L394.882931,41.0718966 C394.595862,40.9922414 394.323793,40.88 394.069828,40.7362069 L392.986724,41.2508621 C392.688276,41.017069 392.419828,40.7486207 392.186034,40.4501724 L392.70069,39.367069 C392.556897,39.1136207 392.444655,38.8410345 392.365,38.5544828 L391.233276,38.152069 C391.210517,37.9658621 391.195517,37.7781034 391.195517,37.5862069 C391.195517,37.3943103 391.210517,37.2065517 391.233276,37.0208621 L392.365,36.6184483 C392.444655,36.3313793 392.556897,36.0593103 392.70069,35.8058621 L392.186034,34.7227586 C392.419828,34.4243103 392.688276,34.1558621 392.986724,33.922069 L394.069828,34.4367241 C394.323276,34.292931 394.595862,34.1806897 394.882931,34.1010345 L395.285345,32.9693103 C395.471034,32.9460345 395.658793,32.9310345 395.85069,32.9310345 Z M395.85069,36.0344828 C394.993621,36.0344828 394.298966,36.7291379 394.298966,37.5862069 C394.298966,38.4432759 394.993621,39.137931 395.85069,39.137931 C396.707759,39.137931 397.402414,38.4432759 397.402414,37.5862069 C397.402414,36.7291379 396.707759,36.0344828 395.85069,36.0344828 Z M381.216379,25.3239655 L383.133793,27.2413793 L381.216379,29.1587931 L380.485,28.4274138 L381.122241,27.7901724 C380.859483,27.7736207 380.596724,27.7586207 380.333448,27.7586207 C376.63931,27.7586207 373.162931,29.3874138 370.794483,32.2275862 L370.794483,32.2275862 L370,31.565 C372.565517,28.4884483 376.332069,26.7241379 380.333448,26.7241379 C380.618448,26.7241379 380.903448,26.7401724 381.187931,26.7582759 L381.187931,26.7582759 L380.485,26.0553448 L381.216379,25.3239655 Z M391.195517,20 C391.42,20 391.640345,20.0165517 391.858103,20.0418966 L392.387759,21.7281034 C392.655172,21.8082759 392.911724,21.9143103 393.153276,22.0441379 L394.718448,21.2274138 C395.067069,21.5031034 395.381552,21.8175862 395.657241,22.1662069 L394.840517,23.7313793 C394.970862,23.972931 395.076379,24.2294828 395.156552,24.4968966 L396.842759,25.0265517 C396.868621,25.2448276 396.885172,25.4651724 396.885172,25.6896552 C396.885172,25.9141379 396.868621,26.1344828 396.843276,26.3522414 L395.157069,26.8818966 C395.076379,27.1493103 394.970862,27.4058621 394.841034,27.6474138 L395.657759,29.2125862 C395.382069,29.5612069 395.067586,29.8756897 394.718966,30.1513793 L393.153793,29.3346552 C392.912241,29.465 392.65569,29.5705172 392.388276,29.6506897 L391.858621,31.3368966 C391.640345,31.3627586 391.42,31.3793103 391.195517,31.3793103 C390.971034,31.3793103 390.75069,31.3627586 390.532931,31.3374138 L390.003276,29.6512069 C389.735862,29.5710345 389.47931,29.465 389.237759,29.3351724 L387.672586,30.1518966 C387.323966,29.8762069 387.009483,29.5617241 386.733793,29.2131034 L387.550517,27.647931 C387.420172,27.4063793 387.314655,27.1498276 387.234483,26.8824138 L385.548276,26.3527586 C385.522414,26.1344828 385.505862,25.9141379 385.505862,25.6896552 C385.505862,25.4651724 385.522414,25.2448276 385.547759,25.027069 L387.233966,24.4974138 C387.314138,24.23 387.420172,23.9734483 387.55,23.7318966 L386.733276,22.1667241 C387.008966,21.8181034 387.323448,21.5036207 387.672069,21.227931 L389.237241,22.0446552 C389.478793,21.9143103 389.735345,21.8087931 390.002759,21.7286207 L390.532414,20.0424138 C390.75069,20.0165517 390.971034,20 391.195517,20 Z M397.513621,20.4262069 L400.607241,21.0448276 L400.404483,22.0591379 L399.080345,21.7943103 C399.67569,22.9994828 399.988621,24.335 399.988621,25.6896552 C399.988621,27.682069 399.303793,29.6336207 398.059828,31.1858621 L398.059828,31.1858621 L397.252414,30.5387931 C398.365517,29.15 398.954138,27.4731034 398.954138,25.6896552 C398.954138,24.5222414 398.68931,23.372931 398.188103,22.3301724 L398.188103,22.3301724 L397.90931,23.7225862 L396.895,23.5193103 L397.513621,20.4262069 Z M391.195517,23.6206897 C390.052931,23.6206897 389.126552,24.547069 389.126552,25.6896552 C389.126552,26.8322414 390.052931,27.7586207 391.195517,27.7586207 C392.338103,27.7586207 393.264483,26.8322414 393.264483,25.6896552 C393.264483,24.547069 392.338103,23.6206897 391.195517,23.6206897 Z" id="Combined-Shape"></path>
                </g>
            </g>
        </g>
    </g>
</svg>