<?xml version="1.0" encoding="UTF-8"?>
<svg width="78px" height="50px" viewBox="0 0 78 50" version="1.1" xmlns="http://www.w3.org/2000/svg" xmlns:xlink="http://www.w3.org/1999/xlink">
    <title>Shape</title>
    <g id="themed" stroke="none" stroke-width="1" fill="none" fill-rule="evenodd">
        <g id="career-2" transform="translate(-200.000000, -871.000000)" fill="#FFFFFF">
            <path d="M223.375394,880.787727 L212.794953,896.096736 C212.302839,896.849639 212.056782,897.853508 212.548896,898.355443 L216.731861,902.872855 C215.501577,906.637366 217.716088,908.645105 220.176656,908.394137 C219.438486,912.158648 221.160883,912.91155 223.129338,913.413485 C222.14511,916.927028 225.343849,919.687669 229.0347,917.930897 C230.757098,921.946375 237.892744,921.44444 239.123028,919.687669 C239.123028,919.687669 239.369085,919.687669 239.369085,919.687669 L236.908517,917.177995 C236.662461,916.927028 236.908517,916.425093 237.400631,916.67606 L241.091483,920.440571 C244.290221,921.695408 246.750789,919.938636 247.735016,918.181864 L239.861199,910.150909 C239.615142,909.899941 239.861199,909.398007 240.353312,909.648974 L249.457413,918.934767 C252.164038,920.189603 254.870662,917.930897 256.100946,914.919289 L248.227129,906.888333 C247.981073,906.637366 248.227129,906.135431 248.719243,906.386398 L256.839117,914.668321 C260.776025,915.170256 263.48265,910.903811 261.022082,907.390268 L258.807571,905.131562 L264.466877,900.112214 C265.451104,899.359312 265.451104,898.857377 264.958991,897.853508 L258.069401,883.548368 C257.33123,882.544499 257.085174,881.791597 255.85489,881.540629 L247.981073,878.779988 C246.750789,878.278054 245.274448,878.027086 244.044164,878.529021 C241.337539,879.281923 237.400631,880.285792 234.940063,881.540629 C230.264984,880.034825 228.050473,880.53676 223.375394,880.787727 Z M259.299685,876.270315 L266.435331,872.505804 L278,895.845769 L271.356467,899.108345 C269.634069,900.112214 267.665615,899.359312 266.681388,897.602541 L258.069401,880.285792 C257.33123,878.779988 257.823344,877.023217 259.299685,876.270315 Z M221.160883,875.76838 L214.763407,871 L200,892.332226 L206.15142,896.849639 C207.62776,897.853508 209.842271,897.351573 211.072555,895.845769 L221.899054,880.034825 C222.883281,878.529021 222.637224,876.772249 221.160883,875.76838 Z M207.62776,890.324487 C206.88959,890.07352 205.905363,890.07352 205.659306,890.826422 C205.167192,891.579324 205.413249,892.583193 205.905363,892.834161 C206.643533,893.336095 207.62776,893.085128 208.119874,892.332226 C208.365931,891.830291 208.119874,890.826422 207.62776,890.324487 Z M270.864353,892.583193 C271.602524,892.332226 272.340694,892.583193 272.832808,893.336095 C273.078864,894.088998 272.832808,895.092867 272.094637,895.343834 C271.356467,895.594802 270.37224,895.343834 270.126183,894.590932 C269.880126,893.83803 270.126183,893.085128 270.864353,892.583193 Z M220.914826,902.621888 C221.899054,902.872855 223.129338,903.876725 222.14511,904.880594 L221.160883,905.884464 C219.930599,906.637366 218.208202,906.135431 218.946372,903.625757 C219.192429,902.872855 219.684543,902.119953 220.914826,902.621888 Z M226.820189,908.14317 L223.867508,911.154778 C221.899054,911.154778 222.14511,909.147039 222.637224,907.892203 L224.359621,905.884464 C225.589905,904.629627 228.29653,906.637366 226.820189,908.14317 Z M231.249211,912.660582 L228.542587,915.421223 C225.589905,916.927028 224.851735,914.668321 225.589905,912.660582 L228.542587,909.899941 C230.018927,908.14317 232.971609,910.903811 231.249211,912.660582 Z M234.694006,917.177995 L233.463722,918.432832 C232.479495,918.683799 231.003155,917.67993 231.003155,916.425093 L231.987382,915.170256 C232.725552,914.919289 234.44795,914.668321 234.694006,917.177995 Z M257.577287,903.876725 L243.059937,889.320618 C242.81388,887.061911 241.337539,887.061911 238.876972,887.312879 C238.876972,893.085128 236.908517,896.598671 232.233438,898.355443 C230.757098,898.857377 229.0347,897.351573 230.018927,895.594802 C235.18612,887.814813 232.233438,887.312879 234.694006,883.548368 C237.892744,882.544499 241.091483,881.289662 244.536278,880.285792 C246.012618,880.034825 246.750789,880.285792 247.242902,880.53676 L254.870662,883.297401 C255.608833,883.799336 256.100946,884.050303 256.347003,884.803205 L262.498423,897.602541 C262.744479,898.355443 262.744479,899.108345 262.006309,899.861247 C260.529968,901.116084 259.053628,902.621888 257.577287,903.876725 Z" id="Shape"></path>
        </g>
    </g>
</svg>